<?xml version="1.0" encoding="UTF-8"?>
<!DOCTYPE svg PUBLIC "-//W3C//DTD SVG 1.1//EN" "http://www.w3.org/Graphics/SVG/1.1/DTD/svg11.dtd">
<!-- Creator: CorelDRAW 2018 (64 Bit) -->
<svg xmlns="http://www.w3.org/2000/svg" xml:space="preserve" width="60px" height="89px" version="1.1" style="shape-rendering:geometricPrecision; text-rendering:geometricPrecision; image-rendering:optimizeQuality; fill-rule:evenodd; clip-rule:evenodd"
viewBox="0 0 49.63 73.3"
 xmlns:xlink="http://www.w3.org/1999/xlink">
 <defs>
  <style type="text/css">
   <![CDATA[
    .fil0 {fill:#000269}
   ]]>
  </style>
 </defs>
 <g id="Capa_x0020_1">
  <metadata id="CorelCorpID_0Corel-Layer"/>
  <path class="fil0" d="M11.5 73.3l26.02 0c-6.75,-1.67 -12,-4.46 -13.42,-10.09 -2.43,5.96 -6.83,9.02 -12.6,10.09zm-7.3 -62.49l0.92 0c2.31,0 4.19,1.89 4.19,4.19l0 11.5 15.59 0c1.99,5.15 6.48,10.43 17.13,17.49 5.9,4.49 7.9,9.35 7.34,14.91 -1,5.06 -8.5,5.07 -9.35,-0.17l-0.02 -0.02 0 -14.34 -30.69 0 0 14.05c0,2.31 -1.88,4.2 -4.19,4.2l-0.92 0c-2.31,0 -4.2,-1.89 -4.2,-4.2l0 -43.42c0,-2.3 1.89,-4.19 4.2,-4.19zm8.09 -10.81l25.23 0c-6.54,1.67 -11.64,4.46 -13.02,10.09 -2.35,-5.97 -6.62,-9.03 -12.21,-10.09zm37.34 28.74c-18.08,-11.71 -7.48,-23.44 0,-15.23l0 15.23z"/>
 </g>
</svg>
